<svg width="776" height="465" viewBox="0 0 776 465" fill="#fff" xmlns="http://www.w3.org/2000/svg">
<path d="M614.333 0H161.667C72.3943 0 0 64.9953 0 145.208V319.458C0 399.642 72.3943 464.667 161.667 464.667H614.333C703.476 464.667 776 399.526 776 319.458V145.208C776 65.1405 703.476 0 614.333 0ZM305.5 334.833C305.5 334.833 305.5 356.333 289.5 356.333H259H234.5C234.5 356.333 167.008 356.333 156.5 356.333C156.5 356.333 146.826 356.333 146.826 340.333V129.833C153.325 104.683 197 110.5 197 129.833C197 149.167 197 296.833 197 310.833H250.5H287C306 310.833 305.5 334.833 305.5 334.833ZM711.333 319.458C711.333 367.493 667.813 406.583 614.333 406.583H388V58.0833H614.333C667.813 58.0833 711.333 97.1734 711.333 145.208V319.458ZM662.833 163.098V163.708C662.833 173.582 653.909 181.598 642.916 181.598L639.5 181.539C635.588 218.568 642.916 230 605.5 251C662.833 260.5 642.948 316 642.948 316C642.948 316 662.833 319.792 662.833 332.5C662.833 345.208 654.685 349.662 642.916 348.645C606.153 345.48 464 348.645 464 348.645C464 348.645 446 349.5 435 330.167C424 310.833 458.5 186.667 458.5 186.667H511C509 196.667 491.5 289.535 491.5 300C602 320.702 577 256 549.376 238.5C583.5 220 583.911 209.507 587.5 181.539H456.482C445.489 181.539 436.565 173.524 436.565 163.65V163.04C436.565 153.166 445.489 145.15 456.482 145.15H529.458V133.998C529.458 124.124 538.382 116.109 549.376 116.109H550.055C561.048 116.109 569.972 124.124 569.972 133.998V145.15H642.948C653.942 145.15 662.866 153.166 662.866 163.04L662.833 163.098Z" fill="white"/>
</svg>
